<?xml version="1.0" standalone="no"?>
<!DOCTYPE svg PUBLIC "-//W3C//DTD SVG 20010904//EN"
 "http://www.w3.org/TR/2001/REC-SVG-20010904/DTD/svg10.dtd">
<svg version="1.0" xmlns="http://www.w3.org/2000/svg"
 width="16.000000pt" height="16.000000pt" viewBox="0 0 16.000000 16.000000"
 preserveAspectRatio="xMidYMid meet">
<metadata>
Created by potrace 1.11, written by Peter Selinger 2001-2013
</metadata>
<g transform="translate(0.000000,16.000000) scale(0.002667,-0.002667)"
fill="#000000" stroke="none">
<path d="M2650 4849 c-93 -7 -123 -12 -265 -45 -103 -24 -294 -83 -337 -105
-21 -11 -38 -17 -38 -14 0 3 -6 1 -12 -4 -7 -6 -60 -35 -118 -64 -88 -45 -283
-166 -300 -186 -3 -4 -30 -26 -60 -50 -118 -91 -331 -318 -387 -411 -12 -19
-30 -44 -40 -55 -22 -23 -113 -180 -113 -193 0 -5 -9 -21 -21 -36 l-20 -26
-213 0 c-235 0 -273 -7 -338 -60 -20 -17 -50 -58 -67 -92 l-31 -61 0 -529 0
-529 26 -52 c30 -58 69 -97 129 -129 33 -18 62 -22 163 -26 l122 -4 1 -482 c1
-264 0 -489 -1 -500 -1 -10 1 -29 4 -42 6 -24 7 -24 156 -24 83 0 151 4 155
10 3 5 6 158 6 340 l0 330 1949 0 1949 0 0 -331 c0 -181 3 -334 6 -340 4 -5
72 -9 155 -9 149 0 150 0 156 24 3 13 5 32 4 42 -1 11 -2 236 -1 502 l1 482
103 0 c159 1 229 33 298 135 l34 50 3 534 c3 610 5 596 -78 681 -70 72 -104
79 -357 81 -230 1 -229 0 -252 61 -5 15 -28 57 -51 93 -22 37 -40 71 -40 75 0
5 -4 10 -8 12 -5 2 -26 28 -47 58 -90 129 -272 324 -385 413 -36 28 -67 54
-70 58 -16 20 -239 158 -320 197 -52 25 -98 50 -101 55 -3 5 -9 8 -13 7 -4 -1
-42 12 -86 29 -164 64 -406 120 -565 132 -127 9 -560 8 -685 -2z m640 -319
c208 -19 319 -45 513 -122 98 -39 199 -85 225 -101 26 -17 72 -47 102 -66 51
-33 120 -83 146 -106 6 -5 35 -30 64 -55 29 -25 72 -65 94 -89 23 -24 52 -55
66 -70 76 -79 192 -253 254 -379 158 -318 195 -526 196 -1074 l0 -328 -1950 0
-1950 0 0 326 c0 529 38 746 181 1044 33 69 77 150 97 180 73 109 147 206 198
260 29 30 61 64 71 75 10 11 43 41 73 65 30 25 64 53 75 63 11 10 51 38 90 64
38 25 93 61 122 80 54 36 321 150 414 176 77 22 221 47 325 56 132 12 463 12
594 1z m-2470 -1189 c0 -15 -29 -138 -39 -163 -5 -13 -12 -43 -15 -68 -4 -25
-11 -74 -16 -110 -6 -36 -13 -163 -17 -282 l-6 -218 -64 0 -63 0 0 418 c0 230
3 422 7 425 10 11 213 8 213 -2z m4578 -418 l2 -423 -65 0 -65 0 -1 133 c-1
72 -1 135 -1 138 1 4 -3 62 -9 129 -9 118 -30 240 -63 365 -24 92 -30 86 92
83 l107 -3 3 -422z"/>
<path d="M2160 3711 c-14 -4 -39 -11 -57 -15 -17 -5 -58 -29 -90 -55 -148
-119 -228 -335 -203 -549 12 -102 53 -229 91 -284 12 -18 50 -61 85 -95 54
-53 73 -65 134 -84 136 -41 260 -6 363 104 66 69 106 146 138 262 31 113 24
286 -16 395 -53 145 -150 259 -258 304 -45 18 -151 28 -187 17z"/>
<path d="M3710 3711 c-141 -33 -256 -152 -316 -327 -21 -62 -28 -104 -32 -196
-4 -104 -2 -126 22 -209 15 -51 39 -115 54 -143 92 -169 269 -257 426 -212
174 51 293 219 326 461 28 210 -55 437 -202 555 -80 64 -188 91 -278 71z"/>
</g>
</svg>
